<svg width="296" height="327" viewBox="0 0 296 327" fill="none" xmlns="http://www.w3.org/2000/svg">
    <g clip-path="url(#clip0_224_5009)">
        <rect width="296" height="327" rx="16" fill="url(#paint0_linear_224_5009)"/>
        <rect opacity="0.5" x="265.332" y="-9" width="306" height="306" rx="29" transform="rotate(18.3067 265.332 -9)" fill="url(#paint1_linear_224_5009)"/>
        <rect opacity="0.5" x="169.115" y="82" width="306" height="306" rx="29" transform="rotate(18.3067 169.115 82)" fill="url(#paint2_linear_224_5009)"/>
        <rect opacity="0.5" x="71.1152" y="167" width="306" height="306" rx="29" transform="rotate(18.3067 71.1152 167)" fill="url(#paint3_linear_224_5009)"/>
    </g>
    <defs>
        <clipPath id="bgblur_1_224_5009_clip_path" transform="translate(419.367 410.367)"><rect x="169.115" y="82" width="306" height="306" rx="29" transform="rotate(18.3067 169.115 82)"/>
        </clipPath><clipPath id="bgblur_2_224_5009_clip_path" transform="translate(517.367 325.367)"><rect x="71.1152" y="167" width="306" height="306" rx="29" transform="rotate(18.3067 71.1152 167)"/>
    </clipPath><linearGradient id="paint0_linear_224_5009" x1="72.9909" y1="-15.8226" x2="268.269" y2="286.297" gradientUnits="userSpaceOnUse">
        <stop stop-color="#B68867"/>
        <stop offset="1" stop-color="#BC8473"/>
    </linearGradient>
        <linearGradient id="paint1_linear_224_5009" x1="418.332" y1="-9" x2="471.084" y2="241.171" gradientUnits="userSpaceOnUse">
            <stop stop-color="white" stop-opacity="0.3"/>
            <stop offset="1" stop-color="white" stop-opacity="0"/>
        </linearGradient>
        <linearGradient id="paint2_linear_224_5009" x1="322.115" y1="82" x2="374.867" y2="332.171" gradientUnits="userSpaceOnUse">
            <stop stop-color="white" stop-opacity="0.3"/>
            <stop offset="1" stop-color="white" stop-opacity="0"/>
        </linearGradient>
        <linearGradient id="paint3_linear_224_5009" x1="224.115" y1="167" x2="276.867" y2="417.171" gradientUnits="userSpaceOnUse">
            <stop stop-color="white" stop-opacity="0.3"/>
            <stop offset="1" stop-color="white" stop-opacity="0"/>
        </linearGradient>
        <clipPath id="clip0_224_5009">
            <rect width="296" height="327" rx="16" fill="white"/>
        </clipPath>
        <clipPath id="clip3_224_5009">
            <rect x="24" y="107" width="16" height="16" rx="8" fill="white"/>
        </clipPath>
        <clipPath id="clip4_224_5009">
            <rect x="24" y="175" width="16" height="16" rx="8" fill="white"/>
        </clipPath>
        <clipPath id="clip5_224_5009">
            <rect x="24" y="223" width="16" height="16" rx="8" fill="white"/>
        </clipPath>
    </defs>
</svg>
